# xmcd
#
# Track frame offsets:
#	150
#	2317
#	7875
#	16692
#	18585
#	28130
#	39077
#	47107
#	58920
#	66207
#	68445
#	76067
#	80377
#	85800
#	97810
#	101900
#	108660
#	114655
#	125435
#	127347
#	133742
#	146745
#	160622
#	169182
#	179602
#	191045
#	203332
#	210925
#	217820
#	223125
#	228935
#	252125
#	259820
#	263015
#	274710
#	278342
#	286762
#	288837
#
# Disc length: 4006 seconds
# Revision: 0
# Processed by: cddbd v1.5.2PL0 Copyright (c) Steve Scherf et al.
# Submitted via: dBpowerAMP V12.0
#
DISCID=070fa426
DTITLE=Mainzer Domchor - Geistliche Musik
DYEAR=1997
DGENRE=Chorus
TTITLE0=Kyrie - Kyrie I
TTITLE1=Kyrie - Kyrie II
TTITLE2=Kyrie - Christe eleison
TTITLE3=Kyrie - Kyrie III
TTITLE4=Kyrie - Kyrie IV
TTITLE5=Gloria - Gloria
TTITLE6=Gloria - Domine Deus
TTITLE7=Gloria - Qui tolis
TTITLE8=Gloria - Qui sedes
TTITLE9=Gloria - Quoniam
TTITLE10=Gloria - Cum Sancto Spiritu
TTITLE11=Credo - Credo
TTITLE12=Credo - Et incarnatus est
TTITLE13=Credo - Et resurrexit
TTITLE14=Sanctus - Sanctus
TTITLE15=Sanctus - Benedictus
TTITLE16=Sanctus - Osanna
TTITLE17=Agnus Dei - Agnus Dei I
TTITLE18=Agnus Dei - Agnus Dei II
TTITLE19=Agnus Dei - Dona nobis
TTITLE20=Prelude
TTITLE21=Fuge
TTITLE22=Requiem - Requiem aeternam
TTITLE23=Requiem - Te decet
TTITLE24=Requiem - Kyrie eleison
TTITLE25=Dies irae - Dies irae
TTITLE26=Dies irae - Recordare
TTITLE27=Dies irae - Lacrimosa
TTITLE28=Dies irae - Dona eis requiem
TTITLE29=Offertorio - Domine Deus
TTITLE30=Offertorio - Sed signifer
TTITLE31=Offertorio - Quam olim
TTITLE32=Sanctus - Sanctus
TTITLE33=Sanctus - Benedictud
TTITLE34=Sanctus - Osanna
TTITLE35=Agnus Dei
TTITLE36=Lux aterna - Et lux perpetua
TTITLE37=Lux aeterna - Cum sanctis tuis
EXTD=
EXTT0=
EXTT1=
EXTT2=
EXTT3=
EXTT4=
EXTT5=
EXTT6=
EXTT7=
EXTT8=
EXTT9=
EXTT10=
EXTT11=
EXTT12=
EXTT13=
EXTT14=
EXTT15=
EXTT16=
EXTT17=
EXTT18=
EXTT19=
EXTT20=
EXTT21=
EXTT22=
EXTT23=
EXTT24=
EXTT25=
EXTT26=
EXTT27=
EXTT28=
EXTT29=
EXTT30=
EXTT31=
EXTT32=
EXTT33=
EXTT34=
EXTT35=
EXTT36=
EXTT37=
PLAYORDER=
